# xmcd
# 
# Track frame offsets:
#     150
#     23908
#     43226
#     58618
#     88917
#     106566
#     135192
#     158064
#     183331
#     207194
#     220552
# 
# Disc length: 3166
# 
# Revision: 0
# Processed by: cddbd v1.5.2PL0 Copyright (c) Steve Scherf et al.
# Submitted via: fre:ac v1.0.17
# 
DISCID=890c5c0b
DTITLE=purple bluze - MAYBE L8TER
DYEAR=2008
DGENRE=Blues
TTITLE0=the new song
TTITLE1=when you smile
TTITLE2=intoxicated with love
TTITLE3=only the big thinks count
TTITLE4=her face
TTITLE5=purple blues
TTITLE6=she's a devil in heaven
TTITLE7=so bluesy
TTITLE8=is it me
TTITLE9=love
TTITLE10=she's a devil in heaven (short version)
EXTD=
EXTT0=
EXTT1=
EXTT2=
EXTT3=
EXTT4=
EXTT5=
EXTT6=
EXTT7=
EXTT8=
EXTT9=
EXTT10=
PLAYORDER=
